<svg width="74" height="59" viewBox="0 0 74 59" fill="none" xmlns="http://www.w3.org/2000/svg">
<path d="M3.132 24.0288H1.332C1.02 24.0288 0.912 23.8608 1.008 23.5248L7.74 1.38481C7.836 1.04881 8.064 0.880808 8.424 0.880808H11.016C11.376 0.880808 11.604 1.04881 11.7 1.38481L18.432 23.5248C18.528 23.8608 18.42 24.0288 18.108 24.0288H16.272C16.008 24.0288 15.84 23.8608 15.768 23.5248L14.076 18.2688H5.364L3.672 23.5248C3.576 23.8608 3.396 24.0288 3.132 24.0288ZM9.648 3.58081L5.94 16.0368H13.5L9.792 3.58081H9.648ZM34.3454 24.0288H22.7894C22.4534 24.0288 22.2854 23.8608 22.2854 23.5248V1.38481C22.2854 1.04881 22.4534 0.880808 22.7894 0.880808H24.4094C24.7454 0.880808 24.9134 1.04881 24.9134 1.38481V21.3288C24.9134 21.5448 25.0334 21.6528 25.2734 21.6528H34.3454C34.6814 21.6528 34.8494 21.8328 34.8494 22.1928V23.5248C34.8494 23.8608 34.6814 24.0288 34.3454 24.0288ZM50.5876 24.0288H39.0316C38.6956 24.0288 38.5276 23.8608 38.5276 23.5248V1.38481C38.5276 1.04881 38.6956 0.880808 39.0316 0.880808H40.6516C40.9876 0.880808 41.1556 1.04881 41.1556 1.38481V21.3288C41.1556 21.5448 41.2756 21.6528 41.5156 21.6528H50.5876C50.9236 21.6528 51.0916 21.8328 51.0916 22.1928V23.5248C51.0916 23.8608 50.9236 24.0288 50.5876 24.0288ZM61.7178 24.0288H60.0978C59.7618 24.0288 59.5938 23.8608 59.5938 23.5248V15.3528L52.7538 1.42081C52.6818 1.25281 52.6818 1.12081 52.7538 1.02481C52.8258 0.928808 52.9338 0.880808 53.0778 0.880808H55.0938C55.3578 0.880808 55.5618 1.04881 55.7058 1.38481L60.8538 12.2928H61.0338L66.1458 1.38481C66.2418 1.04881 66.4338 0.880808 66.7218 0.880808H68.7738C69.1818 0.880808 69.2898 1.06081 69.0978 1.42081L62.2218 15.3528V23.5248C62.2218 23.8608 62.0538 24.0288 61.7178 24.0288ZM14.904 58.0288H3.348C3.012 58.0288 2.844 57.8608 2.844 57.5248V35.3848C2.844 35.0488 3.012 34.8808 3.348 34.8808H4.968C5.304 34.8808 5.472 35.0488 5.472 35.3848V55.3288C5.472 55.5448 5.592 55.6528 5.832 55.6528H14.904C15.24 55.6528 15.408 55.8328 15.408 56.1928V57.5248C15.408 57.8608 15.24 58.0288 14.904 58.0288ZM24.3422 55.7248H28.0142C30.0302 55.7248 31.0382 54.6808 31.0382 52.5928V40.3168C31.0382 38.2288 30.0302 37.1848 28.0142 37.1848H24.3422C22.3502 37.1848 21.3542 38.2288 21.3542 40.3168V52.5928C21.3542 54.6808 22.3502 55.7248 24.3422 55.7248ZM28.3382 58.0288H24.0542C22.3982 58.0288 21.0902 57.5608 20.1302 56.6248C19.1942 55.6888 18.7262 54.3808 18.7262 52.7008V40.2088C18.7262 38.5288 19.1942 37.2208 20.1302 36.2848C21.0902 35.3488 22.3982 34.8808 24.0542 34.8808H28.3382C29.9942 34.8808 31.2902 35.3608 32.2262 36.3208C33.1862 37.2568 33.6662 38.5528 33.6662 40.2088V52.7008C33.6662 54.3568 33.1862 55.6648 32.2262 56.6248C31.2902 57.5608 29.9942 58.0288 28.3382 58.0288ZM47.8406 58.0288H43.9526C42.2966 58.0288 40.9886 57.5608 40.0286 56.6248C39.0926 55.6888 38.6246 54.3808 38.6246 52.7008V40.2088C38.6246 38.5288 39.0926 37.2208 40.0286 36.2848C40.9886 35.3488 42.2966 34.8808 43.9526 34.8808H47.8406C49.4966 34.8808 50.7926 35.3608 51.7286 36.3208C52.6646 37.2568 53.1326 38.5528 53.1326 40.2088V41.6848C53.1326 42.0448 52.9646 42.2248 52.6286 42.2248H51.0086C50.6726 42.2248 50.5046 42.0448 50.5046 41.6848V40.3168C50.5046 38.2288 49.5086 37.1848 47.5166 37.1848H44.2406C42.2486 37.1848 41.2526 38.2288 41.2526 40.3168V52.5928C41.2526 54.6808 42.2486 55.7248 44.2406 55.7248H47.5166C49.5086 55.7248 50.5046 54.6808 50.5046 52.5928V48.5608C50.5046 48.3208 50.3966 48.2008 50.1806 48.2008H46.6166C46.2806 48.2008 46.1126 48.0448 46.1126 47.7328V46.4008C46.1126 46.0648 46.2806 45.8968 46.6166 45.8968H52.4126C52.8926 45.8968 53.1326 46.1488 53.1326 46.6528V52.7008C53.1326 54.3808 52.6646 55.6888 51.7286 56.6248C50.7926 57.5608 49.4966 58.0288 47.8406 58.0288ZM63.7172 55.7248H67.3892C69.4052 55.7248 70.4132 54.6808 70.4132 52.5928V40.3168C70.4132 38.2288 69.4052 37.1848 67.3892 37.1848H63.7172C61.7252 37.1848 60.7292 38.2288 60.7292 40.3168V52.5928C60.7292 54.6808 61.7252 55.7248 63.7172 55.7248ZM67.7132 58.0288H63.4292C61.7732 58.0288 60.4652 57.5608 59.5052 56.6248C58.5692 55.6888 58.1012 54.3808 58.1012 52.7008V40.2088C58.1012 38.5288 58.5692 37.2208 59.5052 36.2848C60.4652 35.3488 61.7732 34.8808 63.4292 34.8808H67.7132C69.3692 34.8808 70.6652 35.3608 71.6012 36.3208C72.5612 37.2568 73.0412 38.5528 73.0412 40.2088V52.7008C73.0412 54.3568 72.5612 55.6648 71.6012 56.6248C70.6652 57.5608 69.3692 58.0288 67.7132 58.0288Z" fill="#8327CB"/>
</svg>
