<svg width="15" height="15" viewBox="0 0 15 15" fill="none" xmlns="http://www.w3.org/2000/svg">
<path d="M1 7.36883C1 10.8863 3.89322 13.7377 7.4624 13.7377C11.0316 13.7377 13.9248 10.8863 13.9248 7.36883C13.9248 3.85133 11.0316 1 7.4624 1C3.89322 1 1 3.85133 1 7.36883Z" stroke="#8327CB" stroke-width="0.96936" stroke-linecap="round" stroke-linejoin="round"/>
<path d="M8.10825 1.03174C8.10825 1.03174 10.047 3.54743 10.047 7.36873C10.047 11.19 8.10825 13.7057 8.10825 13.7057M6.81577 13.7057C6.81577 13.7057 4.87705 11.19 4.87705 7.36873C4.87705 3.54743 6.81577 1.03174 6.81577 1.03174M1.40674 9.59782H13.5173M1.40674 5.13964H13.5173" stroke="#8327CB" stroke-width="0.96936" stroke-linecap="round" stroke-linejoin="round"/>
</svg>
