<svg width="32" height="32" viewBox="0 0 32 32" fill="none" xmlns="http://www.w3.org/2000/svg">
<path d="M17.4 6.66803C17.4 8.13265 14.1641 9.31996 10.1724 9.31996C6.18072 9.31996 2.94482 8.13265 2.94482 6.66803M17.4 6.66803C17.4 5.20342 14.1641 4.01611 10.1724 4.01611C6.18072 4.01611 2.94482 5.20342 2.94482 6.66803M17.4 6.66803V12.578C15.7948 13.0644 14.7718 13.8003 14.7718 14.6238M2.94482 6.66803V22.5796C2.94482 24.0442 6.18072 25.2315 10.1724 25.2315C11.9197 25.2315 13.5221 25.004 14.7718 24.6253V14.6238M2.94482 11.9719C2.94482 13.4365 6.18072 14.6238 10.1724 14.6238C11.9197 14.6238 13.5221 14.3963 14.7718 14.0176M2.94482 17.2757C2.94482 18.7403 6.18072 19.9276 10.1724 19.9276C11.9197 19.9276 13.5221 19.7001 14.7718 19.3215M29.2269 14.6238C29.2269 16.0884 25.991 17.2757 21.9993 17.2757C18.0076 17.2757 14.7718 16.0884 14.7718 14.6238M29.2269 14.6238C29.2269 13.1592 25.991 11.9719 21.9993 11.9719C18.0076 11.9719 14.7718 13.1592 14.7718 14.6238M29.2269 14.6238V25.2315C29.2269 26.6961 25.991 27.8834 21.9993 27.8834C18.0076 27.8834 14.7718 26.6961 14.7718 25.2315V14.6238M29.2269 19.9276C29.2269 21.3923 25.991 22.5796 21.9993 22.5796C18.0076 22.5796 14.7718 21.3923 14.7718 19.9276" stroke="#93EDFE" stroke-width="2.17395" stroke-linecap="round" stroke-linejoin="round"/>
</svg>
